#N canvas 720 22 720 852 10;
#X obj 22 609 *~ 0.5;
#X obj 72 803 dac~;
#X obj 320 681 delread~ dL 300;
#X obj 321 716 *~ 0.7;
#X obj 300 808 delwrite~ dL 1000;
#X obj 129 299 *~;
#X obj 164 144 nbx 5 14 -1e+37 1e+37 0 0 empty empty empty 0 -8 0 10
-262144 -1 -1 329.628 256;
#X obj 63 133 nbx 5 14 -1e+37 1e+37 0 0 empty empty empty 0 -8 0 10
-262144 -1 -1 329.628 256;
#X obj 103 342 tgl 15 0 empty empty empty 17 7 0 10 -262144 -1 -1 0
1;
#X obj 104 368 sel 1 0, f 19;
#X obj 104 402 pack 1 10;
#X obj 173 402 pack 0 200;
#X obj 69 384 osc~;
#X obj 108 215 *;
#X obj 106 242 osc~;
#X obj 173 232 *;
#X obj 71 304 +~;
#X obj 115 181 t b f;
#X obj 243 141 nbx 5 14 -1e+37 1e+37 0 0 empty empty empty 0 -8 0 10
-262144 -1 -1 25.1968 256;
#X obj 209 190 t b f;
#X obj 71 89 mtof;
#X obj 159 47 mtof;
#X obj 162 17 ctlin 1 0;
#X obj 81 23 ctlin 0 0;
#X obj 243 11 ctlin 2 0;
#X obj 241 49 / 127;
#X obj 56 528 *~;
#X obj 95 632 / 127;
#X obj 94 592 ctlin 3;
#X obj 187 300 ctlin 32;
#X obj 309 260 / 127;
#X obj 291 296 * 100;
#X obj 411 267 / 127;
#X obj 296 331 + 10;
#X obj 380 334 + 100;
#X obj 349 506 / 127;
#X obj 311 222 ctlin 16 0;
#X obj 413 229 ctlin 17 0;
#X obj 351 468 ctlin 18 0;
#X obj 318 573 + 10;
#X obj 194 330 / 127;
#X obj 331 541 * 1000;
#X obj 430 548 / 127;
#X obj 429 580 clip 0 0.99;
#X obj 428 516 ctlin 19 0;
#X obj 393 303 * 200;
#X obj 237 170 clip 0.1 1000;
#X obj 125 98 clip 0.1 1000;
#X obj 308 752 clip~ -1 1;
#X obj 93 744 clip~ -1 1;
#X obj 102 435 line;
#X obj 223 85 * 50;
#X obj 178 475 *~ 0.5;
#X obj 387 69 loadbang;
#X msg 392 101 64;
#X obj 141 553 loadbang;
#X msg 164 598 20;
#X connect 0 0 49 0;
#X connect 2 0 3 0;
#X connect 3 0 48 0;
#X connect 5 0 16 1;
#X connect 8 0 9 0;
#X connect 9 0 10 0;
#X connect 9 1 11 0;
#X connect 10 0 50 0;
#X connect 11 0 50 0;
#X connect 12 0 52 0;
#X connect 12 0 26 0;
#X connect 13 0 14 0;
#X connect 13 0 15 0;
#X connect 14 0 5 0;
#X connect 15 0 5 1;
#X connect 16 0 12 0;
#X connect 17 0 13 0;
#X connect 17 1 13 1;
#X connect 19 0 15 0;
#X connect 19 1 15 1;
#X connect 20 0 7 0;
#X connect 20 0 13 0;
#X connect 20 0 16 0;
#X connect 21 0 6 0;
#X connect 21 0 47 0;
#X connect 22 0 21 0;
#X connect 23 0 20 0;
#X connect 24 0 25 0;
#X connect 25 0 51 0;
#X connect 26 0 0 0;
#X connect 27 0 0 1;
#X connect 28 0 27 0;
#X connect 29 0 40 0;
#X connect 30 0 31 0;
#X connect 31 0 33 0;
#X connect 32 0 45 0;
#X connect 33 0 10 1;
#X connect 34 0 11 1;
#X connect 35 0 41 0;
#X connect 36 0 30 0;
#X connect 37 0 32 0;
#X connect 38 0 35 0;
#X connect 39 0 2 0;
#X connect 40 0 8 0;
#X connect 41 0 39 0;
#X connect 42 0 43 0;
#X connect 43 0 3 1;
#X connect 44 0 42 0;
#X connect 45 0 34 0;
#X connect 46 0 19 0;
#X connect 47 0 17 0;
#X connect 48 0 4 0;
#X connect 48 0 0 0;
#X connect 49 0 1 0;
#X connect 49 0 1 1;
#X connect 50 0 26 1;
#X connect 51 0 18 0;
#X connect 51 0 46 0;
#X connect 52 0 4 0;
#X connect 53 0 54 0;
#X connect 54 0 25 0;
#X connect 54 0 21 0;
#X connect 54 0 20 0;
#X connect 55 0 56 0;
#X connect 56 0 27 0;
